<svg width="20" height="20" viewBox="0 0 20 20" fill="none" xmlns="http://www.w3.org/2000/svg">
<path fill-rule="evenodd" clip-rule="evenodd" d="M20 10.1009C20 15.4993 15.5225 19.8762 10 19.8762C4.4775 19.8762 0 15.4993 0 10.1009C0 4.70255 4.4775 0.325684 10 0.325684C15.5225 0.325684 20 4.70255 20 10.1009ZM10.3583 7.54226C9.38583 7.93734 7.44167 8.75601 4.52667 9.99747C4.05333 10.1816 3.805 10.3616 3.7825 10.5376C3.74417 10.8357 4.12583 10.953 4.64417 11.1118C4.715 11.1338 4.78833 11.1558 4.86333 11.1803C5.37417 11.3424 6.06083 11.5322 6.4175 11.5395C6.74167 11.546 7.10333 11.4157 7.5025 11.1485C10.2258 9.35067 11.6317 8.44239 11.72 8.42284C11.7825 8.40899 11.8692 8.39107 11.9275 8.44239C11.9858 8.4929 11.98 8.58902 11.9742 8.61509C11.9358 8.77231 10.4408 10.1319 9.66583 10.8357C9.42417 11.0548 9.25333 11.2104 9.21833 11.2463C9.14 11.3253 9.06 11.401 8.98333 11.4735C8.50833 11.9199 8.15333 12.2556 9.00333 12.803C9.41167 13.0661 9.73833 13.2836 10.0642 13.5003C10.42 13.7373 10.775 13.9735 11.235 14.2684C11.3517 14.3434 11.4633 14.4208 11.5725 14.4965C11.9867 14.7857 12.3592 15.0448 12.8192 15.004C13.0858 14.9796 13.3625 14.7344 13.5025 14.0021C13.8333 12.2702 14.485 8.51978 14.6358 6.97366C14.645 6.84529 14.6394 6.71632 14.6192 6.58917C14.607 6.48647 14.5559 6.39198 14.4758 6.32442C14.3567 6.22911 14.1717 6.20875 14.0883 6.21038C13.7125 6.2169 13.1358 6.41321 10.3583 7.54226V7.54226Z" fill="#3E4A70"/>
</svg>
